<svg width="301" height="301" viewBox="0 0 301 301" fill="none" xmlns="http://www.w3.org/2000/svg">
<circle cx="150.5" cy="150.5" r="150.5" fill="#1F1F1F"/>
<path d="M164.781 161.997H119.127L118.883 136.851H157.213C163.967 136.851 169.501 135.996 173.814 134.287C178.128 132.497 181.342 129.933 183.458 126.597C185.655 123.179 186.754 119.028 186.754 114.146C186.754 108.612 185.696 104.136 183.58 100.718C181.546 97.2998 178.331 94.8177 173.937 93.2715C169.623 91.7253 164.049 90.9521 157.213 90.9521H131.822V240H95.2012V62.2656H157.213C167.548 62.2656 176.785 63.2422 184.923 65.1953C193.142 67.1484 200.1 70.1188 205.797 74.1064C211.493 78.0941 215.847 83.1396 218.858 89.2432C221.869 95.2653 223.375 102.427 223.375 110.728C223.375 118.052 221.707 124.806 218.37 130.991C215.115 137.176 209.947 142.222 202.867 146.128C195.868 150.034 186.713 152.191 175.401 152.598L164.781 161.997ZM163.194 240H109.117L123.399 211.436H163.194C169.623 211.436 174.872 210.418 178.941 208.384C183.01 206.268 186.021 203.42 187.975 199.839C189.928 196.258 190.904 192.148 190.904 187.51C190.904 182.301 190.009 177.785 188.219 173.96C186.51 170.135 183.743 167.205 179.918 165.171C176.093 163.055 171.048 161.997 164.781 161.997H129.503L129.747 136.851H173.692L182.115 146.738C192.939 146.576 201.646 148.488 208.238 152.476C214.911 156.382 219.754 161.468 222.765 167.734C225.857 174.001 227.403 180.715 227.403 187.876C227.403 199.269 224.921 208.872 219.957 216.685C214.993 224.416 207.709 230.234 198.106 234.141C188.585 238.047 176.948 240 163.194 240Z" fill="white"/>
<mask id="mask0_2_30" style="mask-type:alpha" maskUnits="userSpaceOnUse" x="95" y="62" width="133" height="178">
<path d="M164.781 161.997H119.127L118.883 136.851H157.213C163.967 136.851 169.501 135.996 173.814 134.287C178.128 132.497 181.342 129.933 183.458 126.597C185.655 123.179 186.754 119.028 186.754 114.146C186.754 108.612 185.696 104.136 183.58 100.718C181.546 97.2998 178.331 94.8177 173.937 93.2715C169.623 91.7253 164.049 90.9521 157.213 90.9521H131.822V240H95.2012V62.2656H157.213C167.548 62.2656 176.785 63.2422 184.923 65.1953C193.142 67.1484 200.1 70.1188 205.797 74.1064C211.493 78.0941 215.847 83.1396 218.858 89.2432C221.869 95.2653 223.375 102.427 223.375 110.728C223.375 118.052 221.707 124.806 218.37 130.991C215.115 137.176 209.947 142.222 202.867 146.128C195.868 150.034 186.713 152.191 175.401 152.598L164.781 161.997ZM163.194 240H109.117L123.399 211.436H163.194C169.623 211.436 174.872 210.418 178.941 208.384C183.01 206.268 186.021 203.42 187.975 199.839C189.928 196.258 190.904 192.148 190.904 187.51C190.904 182.301 190.009 177.785 188.219 173.96C186.51 170.135 183.743 167.205 179.918 165.171C176.093 163.055 171.048 161.997 164.781 161.997H129.503L129.747 136.851H173.692L182.115 146.738C192.939 146.576 201.646 148.488 208.238 152.476C214.911 156.382 219.754 161.468 222.765 167.734C225.857 174.001 227.403 180.715 227.403 187.876C227.403 199.269 224.921 208.872 219.957 216.685C214.993 224.416 207.709 230.234 198.106 234.141C188.585 238.047 176.948 240 163.194 240Z" fill="white"/>
</mask>
<g mask="url(#mask0_2_30)">
<path d="M113 91.5C111.4 80.3 88 39.8333 76.5 21L24 226C70.3333 257.833 163 323.8 163 333C163 344.5 308.19 201.353 239.5 235C198.701 254.985 279.667 206 239.5 217.5L215 252.5C242 278.5 128 217.5 113 162C104.129 129.178 115 105.5 113 91.5Z" fill="url(#paint0_linear_2_30)"/>
</g>
<defs>
<linearGradient id="paint0_linear_2_30" x1="36.5" y1="62.5" x2="201" y2="356" gradientUnits="userSpaceOnUse">
<stop stop-color="#13767C"/>
<stop offset="1" stop-color="#279AA2" stop-opacity="0"/>
</linearGradient>
</defs>
</svg>
